<svg xmlns="http://www.w3.org/2000/svg" viewBox="0 0 760 360" fill="none" shape-rendering="crispEdges">
  <!-- rainbow trail with a stair-stepped leading edge -->
  <rect x="10"  y="110" width="300" height="28" fill="#ff1a1a"/>
  <rect x="10"  y="138" width="300" height="28" fill="#ff9933"/>
  <rect x="10"  y="166" width="300" height="28" fill="#ffe600"/>
  <rect x="10"  y="194" width="300" height="28" fill="#33dd33"/>
  <rect x="10"  y="222" width="300" height="28" fill="#3399ff"/>
  <rect x="10"  y="250" width="300" height="28" fill="#9955ff"/>
  <rect x="310" y="124" width="34" height="28" fill="#ff1a1a"/>
  <rect x="310" y="152" width="34" height="28" fill="#ff9933"/>
  <rect x="310" y="180" width="34" height="28" fill="#ffe600"/>
  <rect x="310" y="208" width="34" height="28" fill="#33dd33"/>
  <rect x="310" y="236" width="34" height="28" fill="#3399ff"/>
  <rect x="310" y="264" width="34" height="28" fill="#9955ff"/>
  <!-- tail -->
  <rect x="318" y="186" width="34" height="18" fill="#9a9a9a"/>
  <!-- pop-tart body: crust + strawberry frosting -->
  <rect x="344" y="138" width="170" height="128" fill="#e6b27e"/>
  <rect x="356" y="150" width="146" height="104" fill="#ffafd0"/>
  <!-- sprinkles -->
  <rect x="378" y="170" width="10" height="10" fill="#3fd0ff"/>
  <rect x="430" y="166" width="10" height="10" fill="#ff4fa3"/>
  <rect x="468" y="186" width="10" height="10" fill="#3fd0ff"/>
  <rect x="398" y="210" width="10" height="10" fill="#ff4fa3"/>
  <rect x="448" y="216" width="10" height="10" fill="#3fd0ff"/>
  <rect x="372" y="226" width="10" height="10" fill="#ff4fa3"/>
  <!-- legs -->
  <rect x="360" y="266" width="22" height="26" fill="#9a9a9a"/>
  <rect x="402" y="266" width="22" height="26" fill="#9a9a9a"/>
  <rect x="444" y="266" width="22" height="26" fill="#9a9a9a"/>
  <rect x="486" y="266" width="22" height="26" fill="#9a9a9a"/>
  <rect x="360" y="288" width="22" height="8" fill="#5a5a5a"/>
  <rect x="402" y="288" width="22" height="8" fill="#5a5a5a"/>
  <rect x="444" y="288" width="22" height="8" fill="#5a5a5a"/>
  <rect x="486" y="288" width="22" height="8" fill="#5a5a5a"/>
  <!-- head -->
  <rect x="512" y="150" width="104" height="104" fill="#9a9a9a"/>
  <rect x="520" y="138" width="20" height="16" fill="#9a9a9a"/>
  <rect x="588" y="138" width="20" height="16" fill="#9a9a9a"/>
  <!-- eyes -->
  <rect x="540" y="184" width="16" height="20" fill="#1f1f1f"/>
  <rect x="572" y="184" width="16" height="20" fill="#1f1f1f"/>
  <rect x="544" y="188" width="5" height="6" fill="#ffffff"/>
  <rect x="576" y="188" width="5" height="6" fill="#ffffff"/>
  <!-- cheeks -->
  <rect x="524" y="210" width="18" height="14" fill="#ff8fb3"/>
  <rect x="586" y="210" width="18" height="14" fill="#ff8fb3"/>
  <!-- nose + mouth -->
  <rect x="562" y="206" width="4" height="10" fill="#1f1f1f"/>
  <rect x="548" y="222" width="14" height="4" fill="#1f1f1f"/>
  <rect x="566" y="222" width="14" height="4" fill="#1f1f1f"/>
</svg>
